<svg id="weedmaps_full_logo" xmlns="http://www.w3.org/2000/svg" viewBox="0 0 286.99 67.33">
    <defs>
        <style>.cls-1{fill:#00cdbe;}</style>
    </defs>
    <g>
        <g>
            <path class="cls-1"
                  d="M28,40.6,22.8,20.87h-.11l-5,19.73H9.32L0,11.2H8.53l5.4,20h.12l4.89-20h7.84l5,19.91h.11L37.3,11.2h8.31L36.34,40.6Z"/>
            <path class="cls-1"
                  d="M53.68,33.55a7.24,7.24,0,0,0,5.23,1.76,7.16,7.16,0,0,0,4.21-1.22,5,5,0,0,0,2.16-2.59h7.11q-1.71,5.3-5.23,7.57a15.46,15.46,0,0,1-8.53,2.27,16.82,16.82,0,0,1-6.26-1.11,13,13,0,0,1-4.72-3.15,14.21,14.21,0,0,1-3-4.9,17.67,17.67,0,0,1-1.05-6.25,17.12,17.12,0,0,1,1.08-6.14,14.2,14.2,0,0,1,7.82-8.19,15.27,15.27,0,0,1,6.11-1.19,14,14,0,0,1,6.54,1.45,13,13,0,0,1,4.58,3.89,16,16,0,0,1,2.58,5.58,20.8,20.8,0,0,1,.57,6.54H51.69C51.8,30.48,52.47,32.38,53.68,33.55Zm9.13-15.47a5.69,5.69,0,0,0-4.41-1.59,7.08,7.08,0,0,0-3.21.65,6.25,6.25,0,0,0-2,1.62,6.06,6.06,0,0,0-1.08,2,9.34,9.34,0,0,0-.37,1.94H64.83A9.36,9.36,0,0,0,62.81,18.08Z"/>
            <path class="cls-1"
                  d="M84.62,33.55a8.29,8.29,0,0,0,9.44.54,5.1,5.1,0,0,0,2.16-2.59h7.11q-1.71,5.3-5.24,7.57a15.44,15.44,0,0,1-8.53,2.27,16.77,16.77,0,0,1-6.25-1.11,12.93,12.93,0,0,1-4.72-3.15,14.23,14.23,0,0,1-3-4.9,17.9,17.9,0,0,1-1-6.25,17.12,17.12,0,0,1,1.08-6.14,14.2,14.2,0,0,1,7.82-8.19,15.34,15.34,0,0,1,6.11-1.19,13.9,13.9,0,0,1,6.54,1.45,12.92,12.92,0,0,1,4.58,3.89,15.89,15.89,0,0,1,2.59,5.58,20.8,20.8,0,0,1,.57,6.54H82.62C82.74,30.48,83.4,32.38,84.62,33.55Zm9.12-15.47a5.65,5.65,0,0,0-4.4-1.59,7.15,7.15,0,0,0-3.22.65,6.2,6.2,0,0,0-2,1.62,5.88,5.88,0,0,0-1.08,2,9.42,9.42,0,0,0-.38,1.94H95.76A9.36,9.36,0,0,0,93.74,18.08Z"/>
            <path class="cls-1"
                  d="M127.78,36.85a8.33,8.33,0,0,1-3.73,3.44,13.6,13.6,0,0,1-11-.23,11.58,11.58,0,0,1-4.12-3.47,15.81,15.81,0,0,1-2.45-5,21.11,21.11,0,0,1-.82-5.92,19.81,19.81,0,0,1,.82-5.71,14.83,14.83,0,0,1,2.45-4.86A12.15,12.15,0,0,1,113,11.69a12,12,0,0,1,5.69-1.28,11.6,11.6,0,0,1,5,1.11,8.56,8.56,0,0,1,3.72,3.27h.11V0h8.08V40.6h-7.68V36.85Zm-.34-14.53a8.66,8.66,0,0,0-1.17-3,6.58,6.58,0,0,0-2.13-2.07,6.28,6.28,0,0,0-3.3-.8,6.54,6.54,0,0,0-3.35.8,6.13,6.13,0,0,0-2.19,2.1,9.15,9.15,0,0,0-1.2,3,15.89,15.89,0,0,0-.37,3.49,14.79,14.79,0,0,0,.4,3.42,9.2,9.2,0,0,0,1.28,3,7,7,0,0,0,2.22,2.16,6,6,0,0,0,3.21.82,6.44,6.44,0,0,0,3.33-.79,6,6,0,0,0,2.13-2.14,9.59,9.59,0,0,0,1.14-3,18.51,18.51,0,0,0,.34-3.52A18.07,18.07,0,0,0,127.44,22.32Z"/>
            <path class="cls-1"
                  d="M209.07,36.85a8.33,8.33,0,0,1-3.73,3.44,13.6,13.6,0,0,1-11-.23,11.58,11.58,0,0,1-4.12-3.47,15.81,15.81,0,0,1-2.45-5,21.11,21.11,0,0,1-.82-5.92,19.81,19.81,0,0,1,.82-5.71,14.83,14.83,0,0,1,2.45-4.86,12.15,12.15,0,0,1,4.06-3.38A12,12,0,0,1,200,10.41a11.6,11.6,0,0,1,5,1.11,8.56,8.56,0,0,1,3.72,3.27h.11V11.06h8.08V40.6h-7.68V36.85Zm-.34-14.53a8.66,8.66,0,0,0-1.17-3,6.58,6.58,0,0,0-2.13-2.07,6.25,6.25,0,0,0-3.3-.8,6.54,6.54,0,0,0-3.35.8,6.21,6.21,0,0,0-2.19,2.1,9.38,9.38,0,0,0-1.2,3,15.89,15.89,0,0,0-.37,3.49,14.79,14.79,0,0,0,.4,3.42,9.2,9.2,0,0,0,1.28,3,7.15,7.15,0,0,0,2.22,2.16,6,6,0,0,0,3.21.82,6.41,6.41,0,0,0,3.33-.79,6,6,0,0,0,2.13-2.14,9.59,9.59,0,0,0,1.14-3,18.51,18.51,0,0,0,.34-3.52A18.07,18.07,0,0,0,208.73,22.32Z"/>
            <path class="cls-1"
                  d="M147.79,11.2v4h.12a11.47,11.47,0,0,1,3.84-3.52,10.4,10.4,0,0,1,5.14-1.25A11.82,11.82,0,0,1,162,11.49a7.11,7.11,0,0,1,3.5,3.81A12.64,12.64,0,0,1,169,11.88a9.5,9.5,0,0,1,5.32-1.47,16,16,0,0,1,4.32.56,8.93,8.93,0,0,1,3.42,1.82,8.45,8.45,0,0,1,2.21,3.28,13,13,0,0,1,.8,4.86V40.6H177V23.94c0-1,0-1.92-.11-2.79a6,6,0,0,0-.62-2.27,3.92,3.92,0,0,0-1.51-1.54,5.58,5.58,0,0,0-2.7-.57,5.13,5.13,0,0,0-2.76.66,4.79,4.79,0,0,0-1.65,1.7,7,7,0,0,0-.8,2.39,18.66,18.66,0,0,0-.2,2.7V40.6H158.6V24.11c0-.87,0-1.73-.06-2.59a7.18,7.18,0,0,0-.48-2.36,3.69,3.69,0,0,0-1.42-1.73,5.34,5.34,0,0,0-2.93-.66,6.17,6.17,0,0,0-1.51.26,5,5,0,0,0-1.82,1,5.56,5.56,0,0,0-1.51,2.05,8.39,8.39,0,0,0-.62,3.49V40.6h-8.07V11.2Z"/>
            <path class="cls-1"
                  d="M228.38,11.2V15h.11a8.78,8.78,0,0,1,3.75-3.47,11.52,11.52,0,0,1,5-1.08,12.77,12.77,0,0,1,6,1.3,12.51,12.51,0,0,1,4.15,3.47,14.6,14.6,0,0,1,2.44,5,22.34,22.34,0,0,1,.8,6,20.2,20.2,0,0,1-.8,5.68,14.41,14.41,0,0,1-2.41,4.83,11.87,11.87,0,0,1-4,3.36,12.2,12.2,0,0,1-5.66,1.25,11.41,11.41,0,0,1-5-1.11A9.39,9.39,0,0,1,228.89,37h-.12V50.9H220.7V11.2Zm10.49,23.32A6.51,6.51,0,0,0,241,32.44a8.59,8.59,0,0,0,1.16-3,17.52,17.52,0,0,0,.34-3.47,16.75,16.75,0,0,0-.36-3.47,9.39,9.39,0,0,0-1.23-3.05,7,7,0,0,0-2.19-2.16,6.11,6.11,0,0,0-3.27-.82,6.19,6.19,0,0,0-3.32.82A6.5,6.5,0,0,0,230,19.45a8.72,8.72,0,0,0-1.17,3,17.83,17.83,0,0,0-.34,3.53,16.17,16.17,0,0,0,.37,3.47,8.83,8.83,0,0,0,1.19,3,6.91,6.91,0,0,0,8.82,2.08Z"/>
            <path class="cls-1"
                  d="M260.53,33.29a4.71,4.71,0,0,0,1.4,1.54,5.85,5.85,0,0,0,2,.88,9.17,9.17,0,0,0,2.3.29,8.76,8.76,0,0,0,1.79-.2,5.81,5.81,0,0,0,1.71-.63A3.78,3.78,0,0,0,271,34a3,3,0,0,0,.51-1.79c0-1.21-.81-2.12-2.42-2.73a49.73,49.73,0,0,0-6.74-1.82,35.56,35.56,0,0,1-3.44-.94,11.57,11.57,0,0,1-3-1.42,6.85,6.85,0,0,1-2.11-2.21,6.32,6.32,0,0,1-.79-3.28,8.83,8.83,0,0,1,1.11-4.66A8.06,8.06,0,0,1,257,12.31a12.93,12.93,0,0,1,4.09-1.48,25.64,25.64,0,0,1,4.66-.42,23.63,23.63,0,0,1,4.64.45,12.54,12.54,0,0,1,4,1.54,9.09,9.09,0,0,1,2.92,2.87,9.58,9.58,0,0,1,1.4,4.52h-7.68a3.54,3.54,0,0,0-1.76-3.16,8,8,0,0,0-3.75-.82c-.46,0-.95,0-1.48.08a4.9,4.9,0,0,0-1.45.37,3,3,0,0,0-1.11.82,2.18,2.18,0,0,0-.46,1.46,2.22,2.22,0,0,0,.8,1.76A6.28,6.28,0,0,0,264,21.41a27.05,27.05,0,0,0,2.92.77c1.1.22,2.22.47,3.36.74a35.63,35.63,0,0,1,3.44,1,11.43,11.43,0,0,1,3,1.51,7.24,7.24,0,0,1,2.11,2.33,6.86,6.86,0,0,1,.79,3.44,8.93,8.93,0,0,1-4.2,8,12.39,12.39,0,0,1-4.3,1.68,25.18,25.18,0,0,1-4.92.48,24.45,24.45,0,0,1-5-.51,13.1,13.1,0,0,1-4.35-1.71A9.81,9.81,0,0,1,253.65,36a10,10,0,0,1-1.34-4.92H260A4.4,4.4,0,0,0,260.53,33.29Z"/>
            <path class="cls-1"
                  d="M279,8.57v4.26h-.82V8.57h-1.54V7.91h3.9v.66Zm7.14,4.26V8.73h0l-1.62,4.1H284l-1.61-4.1h0v4.1h-.81V7.91h1.26l1.47,3.74,1.44-3.74H287v4.92Z"/>
            <path d="M138,57.83c17.45,0,26.29-6.63,26.29-6.63L168,56.28s-13,11-30,11-30.05-11-30.05-11l3.76-5.08S120.5,57.83,138,57.83Z"/>
        </g>
    </g>
</svg>
